HIERARCHY
ROOT Hips
{
  OFFSET 0.000000 95.000000 0.000000
  CHANNELS 6 Xposition Yposition Zposition Zrotation Xrotation Yrotation
  JOINT Spine
  {
    OFFSET 0.000000 10.000000 0.000000
    CHANNELS 3 Zrotation Xrotation Yrotation
    JOINT Spine1
    {
      OFFSET 0.000000 12.000000 0.000000
      CHANNELS 3 Zrotation Xrotation Yrotation
      JOINT Spine2
      {
        OFFSET 0.000000 12.000000 0.000000
        CHANNELS 3 Zrotation Xrotation Yrotation
        JOINT Neck
        {
          OFFSET 0.000000 10.000000 0.000000
          CHANNELS 3 Zrotation Xrotation Yrotation
          JOINT Head
          {
            OFFSET 0.000000 8.000000 0.000000
            CHANNELS 3 Zrotation Xrotation Yrotation
            End Site
            {
              OFFSET 0.000000 10.000000 0.000000
            }
          }
        }
        JOINT LeftShoulder
        {
          OFFSET 6.000000 8.000000 0.000000
          CHANNELS 3 Zrotation Xrotation Yrotation
          JOINT LeftArm
          {
            OFFSET 12.000000 0.000000 0.000000
            CHANNELS 3 Zrotation Xrotation Yrotation
            JOINT LeftForeArm
            {
              OFFSET 24.000000 0.000000 0.000000
              CHANNELS 3 Zrotation Xrotation Yrotation
              JOINT LeftHand
              {
                OFFSET 22.000000 0.000000 0.000000
                CHANNELS 3 Zrotation Xrotation Yrotation
                JOINT LeftHandThumb1
                {
                  OFFSET 1.800000 -1.400000 0.500000
                  CHANNELS 3 Zrotation Xrotation Yrotation
                  JOINT LeftHandThumb2
                  {
                    OFFSET 2.400000 0.000000 0.000000
                    CHANNELS 3 Zrotation Xrotation Yrotation
                    JOINT LeftHandThumb3
                    {
                      OFFSET 1.900000 0.000000 0.000000
                      CHANNELS 3 Zrotation Xrotation Yrotation
                      End Site
                      {
                        OFFSET 1.600000 0.000000 0.000000
                      }
                    }
                  }
                }
                JOINT LeftHandIndex1
                {
                  OFFSET 6.600000 1.200000 0.300000
                  CHANNELS 3 Zrotation Xrotation Yrotation
                  JOINT LeftHandIndex2
                  {
                    OFFSET 2.000000 0.000000 0.000000
                    CHANNELS 3 Zrotation Xrotation Yrotation
                    JOINT LeftHandIndex3
                    {
                      OFFSET 1.200000 0.000000 0.000000
                      CHANNELS 3 Zrotation Xrotation Yrotation
                      End Site
                      {
                        OFFSET 1.000000 0.000000 0.000000
                      }
                    }
                  }
                }
                JOINT LeftHandMiddle1
                {
                  OFFSET 7.200000 0.000000 0.300000
                  CHANNELS 3 Zrotation Xrotation Yrotation
                  JOINT LeftHandMiddle2
                  {
                    OFFSET 3.000000 0.000000 0.000000
                    CHANNELS 3 Zrotation Xrotation Yrotation
                    JOINT LeftHandMiddle3
                    {
                      OFFSET 2.000000 0.000000 0.000000
                      CHANNELS 3 Zrotation Xrotation Yrotation
                      End Site
                      {
                        OFFSET 1.600000 0.000000 0.000000
                      }
                    }
                  }
                }
                JOINT LeftHandRing1
                {
                  OFFSET 7.100000 -1.000000 0.400000
                  CHANNELS 3 Zrotation Xrotation Yrotation
                  JOINT LeftHandRing2
                  {
                    OFFSET 2.600000 0.000000 0.000000
                    CHANNELS 3 Zrotation Xrotation Yrotation
                    JOINT LeftHandRing3
                    {
                      OFFSET 1.600000 0.000000 0.000000
                      CHANNELS 3 Zrotation Xrotation Yrotation
                      End Site
                      {
                        OFFSET 1.300000 0.000000 0.000000
                      }
                    }
                  }
                }
                JOINT LeftHandPinky1
                {
                  OFFSET 6.500000 -2.000000 0.500000
                  CHANNELS 3 Zrotation Xrotation Yrotation
                  JOINT LeftHandPinky2
                  {
                    OFFSET 1.900000 0.000000 0.000000
                    CHANNELS 3 Zrotation Xrotation Yrotation
                    JOINT LeftHandPinky3
                    {
                      OFFSET 1.400000 0.000000 0.000000
                      CHANNELS 3 Zrotation Xrotation Yrotation
                      End Site
                      {
                        OFFSET 1.300000 0.000000 0.000000
                      }
                    }
                  }
                }
              }
            }
          }
        }
        JOINT RightShoulder
        {
          OFFSET -6.000000 8.000000 0.000000
          CHANNELS 3 Zrotation Xrotation Yrotation
          JOINT RightArm
          {
            OFFSET -12.000000 0.000000 0.000000
            CHANNELS 3 Zrotation Xrotation Yrotation
            JOINT RightForeArm
            {
              OFFSET -24.000000 0.000000 0.000000
              CHANNELS 3 Zrotation Xrotation Yrotation
              JOINT RightHand
              {
                OFFSET -22.000000 0.000000 0.000000
                CHANNELS 3 Zrotation Xrotation Yrotation
                JOINT RightHandThumb1
                {
                  OFFSET -1.800000 -1.400000 0.500000
                  CHANNELS 3 Zrotation Xrotation Yrotation
                  JOINT RightHandThumb2
                  {
                    OFFSET -2.400000 0.000000 0.000000
                    CHANNELS 3 Zrotation Xrotation Yrotation
                    JOINT RightHandThumb3
                    {
                      OFFSET -1.900000 0.000000 0.000000
                      CHANNELS 3 Zrotation Xrotation Yrotation
                      End Site
                      {
                        OFFSET -1.600000 0.000000 0.000000
                      }
                    }
                  }
                }
                JOINT RightHandIndex1
                {
                  OFFSET -6.600000 1.200000 0.300000
                  CHANNELS 3 Zrotation Xrotation Yrotation
                  JOINT RightHandIndex2
                  {
                    OFFSET -2.000000 0.000000 0.000000
                    CHANNELS 3 Zrotation Xrotation Yrotation
                    JOINT RightHandIndex3
                    {
                      OFFSET -1.200000 0.000000 0.000000
                      CHANNELS 3 Zrotation Xrotation Yrotation
                      End Site
                      {
                        OFFSET -1.000000 0.000000 0.000000
                      }
                    }
                  }
                }
                JOINT RightHandMiddle1
                {
                  OFFSET -7.200000 0.000000 0.300000
                  CHANNELS 3 Zrotation Xrotation Yrotation
                  JOINT RightHandMiddle2
                  {
                    OFFSET -3.000000 0.000000 0.000000
                    CHANNELS 3 Zrotation Xrotation Yrotation
                    JOINT RightHandMiddle3
                    {
                      OFFSET -2.000000 0.000000 0.000000
                      CHANNELS 3 Zrotation Xrotation Yrotation
                      End Site
                      {
                        OFFSET -1.600000 0.000000 0.000000
                      }
                    }
                  }
                }
                JOINT RightHandRing1
                {
                  OFFSET -7.100000 -1.000000 0.400000
                  CHANNELS 3 Zrotation Xrotation Yrotation
                  JOINT RightHandRing2
                  {
                    OFFSET -2.600000 0.000000 0.000000
                    CHANNELS 3 Zrotation Xrotation Yrotation
                    JOINT RightHandRing3
                    {
                      OFFSET -1.600000 0.000000 0.000000
                      CHANNELS 3 Zrotation Xrotation Yrotation
                      End Site
                      {
                        OFFSET -1.300000 0.000000 0.000000
                      }
                    }
                  }
                }
                JOINT RightHandPinky1
                {
                  OFFSET -6.500000 -2.000000 0.500000
                  CHANNELS 3 Zrotation Xrotation Yrotation
                  JOINT RightHandPinky2
                  {
                    OFFSET -1.900000 0.000000 0.000000
                    CHANNELS 3 Zrotation Xrotation Yrotation
                    JOINT RightHandPinky3
                    {
                      OFFSET -1.400000 0.000000 0.000000
                      CHANNELS 3 Zrotation Xrotation Yrotation
                      End Site
                      {
                        OFFSET -1.300000 0.000000 0.000000
                      }
                    }
                  }
                }
              }
            }
          }
        }
      }
    }
  }
  JOINT LeftUpLeg
  {
    OFFSET 10.000000 -5.000000 0.000000
    CHANNELS 3 Zrotation Xrotation Yrotation
    JOINT LeftLeg
    {
      OFFSET 0.000000 -42.000000 0.000000
      CHANNELS 3 Zrotation Xrotation Yrotation
      JOINT LeftFoot
      {
        OFFSET 0.000000 -42.000000 4.000000
        CHANNELS 3 Zrotation Xrotation Yrotation
        End Site
        {
          OFFSET 0.000000 0.000000 12.000000
        }
      }
    }
  }
  JOINT RightUpLeg
  {
    OFFSET -10.000000 -5.000000 0.000000
    CHANNELS 3 Zrotation Xrotation Yrotation
    JOINT RightLeg
    {
      OFFSET 0.000000 -42.000000 0.000000
      CHANNELS 3 Zrotation Xrotation Yrotation
      JOINT RightFoot
      {
        OFFSET 0.000000 -42.000000 4.000000
        CHANNELS 3 Zrotation Xrotation Yrotation
        End Site
        {
          OFFSET 0.000000 0.000000 12.000000
        }
      }
    }
  }
}
MOTION
Frames: 7
Frame Time: 0.033333
0.0000 95.0000 0.0000 0.0000 0.0000 0.0000 0.0000 0.0000 0.0000 0.0000 0.0000 0.0000 0.0000 0.0000 0.0000 0.0000 0.0000 0.0000 0.0000 0.0000 0.0000 0.0000 0.0000 0.0000 -76.1191 -0.6462 -0.8253 -15.3502 -4.5318 7.4505 -9.7997 6.8527 -9.6520 57.0565 -11.4553 4.6022 12.2066 0.0000 0.0000 6.8761 0.0000 0.0000 -1.9722 1.3507 -7.7006 24.4955 0.0000 0.0000 12.3566 0.0000 0.0000 4.0504 0.1142 -8.0014 87.3290 0.0000 0.0000 40.9141 0.0000 0.0000 6.3763 -1.0858 -8.6674 105.7689 0.0000 0.0000 38.9986 0.0000 0.0000 12.5820 -2.6833 -9.1963 110.0000 0.0000 0.0000 15.0942 0.0000 0.0000 0.0000 0.0000 0.0000 91.4693 0.8993 -0.8766 -3.7972 7.2292 6.6565 173.2517 -2.3822 -18.2182 -58.8885 -11.6903 -5.8739 33.1197 0.0000 0.0000 19.6039 0.0000 0.0000 19.8988 0.9258 6.8977 110.0000 0.0000 0.0000 13.7568 0.0000 0.0000 10.9126 -0.1347 6.1821 110.0000 0.0000 0.0000 6.5309 0.0000 0.0000 4.0444 -1.0025 6.9679 110.0000 0.0000 0.0000 4.4869 0.0000 0.0000 -2.8054 -1.1026 3.1679 110.0000 0.0000 0.0000 3.7160 0.0000 0.0000 0.0000 0.0000 0.0000 0.0000 0.0000 0.0000 0.0000 0.0000 0.0000 0.0000 0.0000 0.0000 0.0000 0.0000 0.0000 0.0000 0.0000 0.0000
0.0000 95.0000 0.0000 0.0000 0.0000 0.0000 0.0000 0.0000 0.0000 0.0000 0.0000 0.0000 0.0000 0.0000 0.0000 0.0000 0.0000 0.0000 0.0000 0.0000 0.0000 0.0000 0.0000 0.0000 -76.1286 -0.9826 -1.2548 -15.3513 -4.8998 7.9344 -9.8399 6.8917 -9.6980 57.0565 -11.4553 4.6022 12.2066 0.0000 0.0000 6.8761 0.0000 0.0000 -1.9722 1.3507 -7.7006 24.4955 0.0000 0.0000 12.3566 0.0000 0.0000 4.0504 0.1142 -8.0014 87.3290 0.0000 0.0000 40.9141 0.0000 0.0000 6.3763 -1.0858 -8.6674 105.7689 0.0000 0.0000 38.9986 0.0000 0.0000 12.5820 -2.6833 -9.1963 110.0000 0.0000 0.0000 15.0942 0.0000 0.0000 0.0000 0.0000 0.0000 91.5014 0.8657 -0.8433 -3.5882 7.4024 6.8306 173.1044 -2.6305 -18.4341 -58.8885 -11.6903 -5.8739 33.1197 0.0000 0.0000 19.6039 0.0000 0.0000 19.8988 0.9258 6.8977 110.0000 0.0000 0.0000 13.7568 0.0000 0.0000 10.9126 -0.1347 6.1821 110.0000 0.0000 0.0000 6.5309 0.0000 0.0000 4.0444 -1.0025 6.9679 110.0000 0.0000 0.0000 4.4869 0.0000 0.0000 -2.8054 -1.1026 3.1679 110.0000 0.0000 0.0000 3.7160 0.0000 0.0000 0.0000 0.0000 0.0000 0.0000 0.0000 0.0000 0.0000 0.0000 0.0000 0.0000 0.0000 0.0000 0.0000 0.0000 0.0000 0.0000 0.0000 0.0000
0.0000 95.0000 0.0000 0.0000 0.0000 0.0000 0.0000 0.0000 0.0000 0.0000 0.0000 0.0000 0.0000 0.0000 0.0000 0.0000 0.0000 0.0000 0.0000 0.0000 0.0000 0.0000 0.0000 0.0000 -76.5086 -1.1633 -1.4754 -14.7791 -4.8513 7.6476 -9.9469 6.4820 -9.3151 57.0565 -11.4553 4.6022 12.2066 0.0000 0.0000 6.8761 0.0000 0.0000 -1.9722 1.3507 -7.7006 24.4955 0.0000 0.0000 12.3566 0.0000 0.0000 4.0504 0.1142 -8.0014 87.3290 0.0000 0.0000 40.9141 0.0000 0.0000 6.3763 -1.0858 -8.6674 105.7689 0.0000 0.0000 38.9986 0.0000 0.0000 12.5820 -2.6833 -9.1963 110.0000 0.0000 0.0000 15.0942 0.0000 0.0000 0.0000 0.0000 0.0000 91.4719 0.6040 -0.5887 -3.4013 7.6816 7.0944 173.1564 -3.1516 -18.9831 -58.8885 -11.6903 -5.8739 33.1197 0.0000 0.0000 19.6039 0.0000 0.0000 19.8988 0.9258 6.8977 110.0000 0.0000 0.0000 13.7568 0.0000 0.0000 10.9126 -0.1347 6.1821 110.0000 0.0000 0.0000 6.5309 0.0000 0.0000 4.0444 -1.0025 6.9679 110.0000 0.0000 0.0000 4.4869 0.0000 0.0000 -2.8054 -1.1026 3.1679 110.0000 0.0000 0.0000 3.7160 0.0000 0.0000 0.0000 0.0000 0.0000 0.0000 0.0000 0.0000 0.0000 0.0000 0.0000 0.0000 0.0000 0.0000 0.0000 0.0000 0.0000 0.0000 0.0000 0.0000
0.0000 95.0000 0.0000 0.0000 0.0000 0.0000 0.0000 0.0000 0.0000 0.0000 0.0000 0.0000 0.0000 0.0000 0.0000 0.0000 0.0000 0.0000 0.0000 0.0000 0.0000 0.0000 0.0000 0.0000 -76.7523 -1.3579 -1.7147 -14.3512 -4.5881 7.0508 -9.9770 5.7968 -8.6454 57.0565 -11.4553 4.6022 12.2066 0.0000 0.0000 6.8761 0.0000 0.0000 -1.9722 1.3507 -7.7006 24.4955 0.0000 0.0000 12.3566 0.0000 0.0000 4.0504 0.1142 -8.0014 87.3290 0.0000 0.0000 40.9141 0.0000 0.0000 6.3763 -1.0858 -8.6674 105.7689 0.0000 0.0000 38.9986 0.0000 0.0000 12.5820 -2.6833 -9.1963 110.0000 0.0000 0.0000 15.0942 0.0000 0.0000 0.0000 0.0000 0.0000 91.5024 0.4121 -0.4014 -3.3285 8.0589 7.4344 173.2822 -3.6715 -19.5520 -58.8885 -11.6903 -5.8739 33.1197 0.0000 0.0000 19.6039 0.0000 0.0000 19.8988 0.9258 6.8977 110.0000 0.0000 0.0000 13.7568 0.0000 0.0000 10.9126 -0.1347 6.1821 110.0000 0.0000 0.0000 6.5309 0.0000 0.0000 4.0444 -1.0025 6.9679 110.0000 0.0000 0.0000 4.4869 0.0000 0.0000 -2.8054 -1.1026 3.1679 110.0000 0.0000 0.0000 3.7160 0.0000 0.0000 0.0000 0.0000 0.0000 0.0000 0.0000 0.0000 0.0000 0.0000 0.0000 0.0000 0.0000 0.0000 0.0000 0.0000 0.0000 0.0000 0.0000 0.0000
0.0000 95.0000 0.0000 0.0000 0.0000 0.0000 0.0000 0.0000 0.0000 0.0000 0.0000 0.0000 0.0000 0.0000 0.0000 0.0000 0.0000 0.0000 0.0000 0.0000 0.0000 0.0000 0.0000 0.0000 -76.9392 -1.4087 -1.7729 -13.9461 -4.4839 6.7947 -10.1389 5.5294 -8.4091 57.0565 -11.4553 4.6022 12.2066 0.0000 0.0000 6.8761 0.0000 0.0000 -1.9722 1.3507 -7.7006 24.4955 0.0000 0.0000 12.3566 0.0000 0.0000 4.0504 0.1142 -8.0014 87.3290 0.0000 0.0000 40.9141 0.0000 0.0000 6.3763 -1.0858 -8.6674 105.7689 0.0000 0.0000 38.9986 0.0000 0.0000 12.5820 -2.6833 -9.1963 110.0000 0.0000 0.0000 15.0942 0.0000 0.0000 0.0000 0.0000 0.0000 91.5835 0.2882 -0.2804 -3.4920 8.1376 7.4679 173.4286 -3.8120 -19.7387 -58.8885 -11.6903 -5.8739 33.1197 0.0000 0.0000 19.6039 0.0000 0.0000 19.8988 0.9258 6.8977 110.0000 0.0000 0.0000 13.7568 0.0000 0.0000 10.9126 -0.1347 6.1821 110.0000 0.0000 0.0000 6.5309 0.0000 0.0000 4.0444 -1.0025 6.9679 110.0000 0.0000 0.0000 4.4869 0.0000 0.0000 -2.8054 -1.1026 3.1679 110.0000 0.0000 0.0000 3.7160 0.0000 0.0000 0.0000 0.0000 0.0000 0.0000 0.0000 0.0000 0.0000 0.0000 0.0000 0.0000 0.0000 0.0000 0.0000 0.0000 0.0000 0.0000 0.0000 0.0000
0.0000 95.0000 0.0000 0.0000 0.0000 0.0000 0.0000 0.0000 0.0000 0.0000 0.0000 0.0000 0.0000 0.0000 0.0000 0.0000 0.0000 0.0000 0.0000 0.0000 0.0000 0.0000 0.0000 0.0000 -76.9356 -1.3965 -1.7576 -13.8852 -4.4615 6.7571 -10.1980 5.5055 -8.3955 57.0565 -11.4553 4.6022 12.2066 0.0000 0.0000 6.8761 0.0000 0.0000 -1.9722 1.3507 -7.7006 24.4955 0.0000 0.0000 12.3566 0.0000 0.0000 4.0504 0.1142 -8.0014 87.3290 0.0000 0.0000 40.9141 0.0000 0.0000 6.3763 -1.0858 -8.6674 105.7689 0.0000 0.0000 38.9986 0.0000 0.0000 12.5820 -2.6833 -9.1963 110.0000 0.0000 0.0000 15.0942 0.0000 0.0000 0.0000 0.0000 0.0000 91.4619 0.1826 -0.1780 -3.2050 8.2328 7.6013 173.3586 -4.0522 -19.9648 -58.8885 -11.6903 -5.8739 33.1197 0.0000 0.0000 19.6039 0.0000 0.0000 19.8988 0.9258 6.8977 110.0000 0.0000 0.0000 13.7568 0.0000 0.0000 10.9126 -0.1347 6.1821 110.0000 0.0000 0.0000 6.5309 0.0000 0.0000 4.0444 -1.0025 6.9679 110.0000 0.0000 0.0000 4.4869 0.0000 0.0000 -2.8054 -1.1026 3.1679 110.0000 0.0000 0.0000 3.7160 0.0000 0.0000 0.0000 0.0000 0.0000 0.0000 0.0000 0.0000 0.0000 0.0000 0.0000 0.0000 0.0000 0.0000 0.0000 0.0000 0.0000 0.0000 0.0000 0.0000
0.0000 95.0000 0.0000 0.0000 0.0000 0.0000 0.0000 0.0000 0.0000 0.0000 0.0000 0.0000 0.0000 0.0000 0.0000 0.0000 0.0000 0.0000 0.0000 0.0000 0.0000 0.0000 0.0000 0.0000 -76.9456 -1.3264 -1.6690 -13.9858 -4.1881 6.3450 -10.0182 5.2528 -8.1157 57.0565 -11.4553 4.6022 12.2066 0.0000 0.0000 6.8761 0.0000 0.0000 -1.9722 1.3507 -7.7006 24.4955 0.0000 0.0000 12.3566 0.0000 0.0000 4.0504 0.1142 -8.0014 87.3290 0.0000 0.0000 40.9141 0.0000 0.0000 6.3763 -1.0858 -8.6674 105.7689 0.0000 0.0000 38.9986 0.0000 0.0000 12.5820 -2.6833 -9.1963 110.0000 0.0000 0.0000 15.0942 0.0000 0.0000 0.0000 0.0000 0.0000 91.5080 -0.3227 0.3144 -3.1527 8.2746 7.6096 173.4476 -4.5601 -20.5121 -58.8885 -11.6903 -5.8739 33.1197 0.0000 0.0000 19.6039 0.0000 0.0000 19.8988 0.9258 6.8977 110.0000 0.0000 0.0000 13.7568 0.0000 0.0000 10.9126 -0.1347 6.1821 110.0000 0.0000 0.0000 6.5309 0.0000 0.0000 4.0444 -1.0025 6.9679 110.0000 0.0000 0.0000 4.4869 0.0000 0.0000 -2.8054 -1.1026 3.1679 110.0000 0.0000 0.0000 3.7160 0.0000 0.0000 0.0000 0.0000 0.0000 0.0000 0.0000 0.0000 0.0000 0.0000 0.0000 0.0000 0.0000 0.0000 0.0000 0.0000 0.0000 0.0000 0.0000 0.0000
